<svg width="135" height="40" viewBox="0 0 135 40" fill="none" xmlns="http://www.w3.org/2000/svg">
<g clip-path="url(#clip0)">
<path d="M124.249 -0.000358281H10.7566C10.3429 -0.000358281 9.9342 -0.000358281 9.5216 0.00164172C9.17621 0.00364172 8.83358 0.00945172 8.48488 0.0143417C7.72733 0.0222435 6.97157 0.081318 6.22416 0.191052C5.4778 0.303174 4.75482 0.514557 4.07967 0.818052C3.40534 1.12411 2.7892 1.52181 2.25357 1.99671C1.71514 2.47028 1.26632 3.01766 0.924356 3.6178C0.581453 4.21675 0.343683 4.85858 0.219258 5.52112C0.0936495 6.18283 0.0260586 6.85216 0.0170916 7.52312C0.00662229 7.82972 0.00551669 8.13734 0 8.44398V31.5582C0.00551669 31.8687 0.00662229 32.1695 0.0170916 32.4801C0.0260614 33.1511 0.0936522 33.8204 0.219258 34.482C0.343339 35.145 0.581124 35.7872 0.924356 36.3863C1.26616 36.9845 1.71505 37.5297 2.25357 38.0006C2.78717 38.4777 3.40371 38.8756 4.07967 39.1793C4.75481 39.4836 5.47772 39.6963 6.22416 39.8101C6.9717 39.919 7.72738 39.9781 8.48488 39.9869C8.83358 39.9937 9.17621 39.9976 9.5216 39.9976C9.93419 39.9996 10.343 39.9996 10.7566 39.9996H124.249C124.655 39.9996 125.067 39.9996 125.472 39.9976C125.816 39.9976 126.169 39.9937 126.512 39.9869C127.268 39.9786 128.023 39.9195 128.769 39.8101C129.518 39.6955 130.243 39.4829 130.921 39.1793C131.597 38.8754 132.213 38.4775 132.746 38.0006C133.283 37.5279 133.733 36.9831 134.079 36.3863C134.42 35.7867 134.655 35.1446 134.777 34.482C134.903 33.8203 134.973 33.1511 134.987 32.4801C134.991 32.1695 134.991 31.8687 134.991 31.5582C135 31.1949 135 30.8336 135 30.4644V9.53577C135 9.16956 135 8.80628 134.991 8.44398C134.991 8.13734 134.991 7.82972 134.987 7.52308C134.973 6.85206 134.903 6.18288 134.777 5.52108C134.655 4.85892 134.419 4.21714 134.079 3.61776C133.383 2.41484 132.278 1.43567 130.921 0.817962C130.243 0.515209 129.518 0.303882 128.769 0.190962C128.023 0.0807445 127.269 0.0216495 126.512 0.0142017C126.169 0.00932172 125.816 0.00346172 125.472 0.00151172C125.067 -0.000488281 124.655 -0.000488281 124.249 -0.000488281V-0.000358281Z" fill="#A6A6A6"/>
<path d="M9.42998 39.1276C9.08566 39.1276 8.74966 39.1237 8.40804 39.1169C7.70034 39.1088 6.9943 39.0542 6.29571 38.9538C5.6443 38.8545 5.01327 38.6698 4.42342 38.4058C3.83897 38.1439 3.30591 37.8006 2.84466 37.389C2.37673 36.9822 1.98715 36.5103 1.69137 35.9922C1.39233 35.4707 1.18538 34.9116 1.07772 34.3346C0.961463 33.7146 0.898562 33.0877 0.889561 32.4592C0.882396 32.2483 0.873016 31.5459 0.873016 31.5459V8.44055C0.873016 8.44055 0.883007 7.749 0.889618 7.54582C0.898236 6.91838 0.960772 6.29242 1.07668 5.67336C1.18454 5.09476 1.39165 4.53414 1.69085 4.01092C1.98554 3.49312 2.37296 3.02094 2.83807 2.61267C3.30266 2.20053 3.83742 1.85544 4.42286 1.58999C5.01136 1.32682 5.6412 1.14342 6.29129 1.04594C6.99218 0.944481 7.70067 0.889629 8.41082 0.881841L9.43053 0.869629H125.57L126.602 0.882332C127.306 0.889732 128.008 0.944094 128.702 1.04496C129.359 1.14366 129.995 1.32834 130.59 1.59292C131.763 2.12788 132.718 2.97423 133.32 4.01336C133.614 4.53297 133.818 5.08902 133.924 5.66262C134.042 6.28675 134.107 6.91763 134.121 7.55023C134.124 7.83349 134.124 8.13775 134.124 8.44055C134.133 8.81563 134.133 9.17264 134.133 9.53257V30.4656C134.133 30.829 134.133 31.1836 134.124 31.541C134.124 31.8663 134.124 32.1643 134.12 32.4709C134.106 33.0922 134.042 33.7119 133.927 34.3248C133.821 34.906 133.615 35.4694 133.316 35.9952C133.018 36.5077 132.631 36.9754 132.169 37.3812C131.707 37.795 131.173 38.1404 130.587 38.4039C129.993 38.6699 129.358 38.8553 128.702 38.9538C128.004 39.0548 127.297 39.1093 126.59 39.1169C126.259 39.1237 125.912 39.1276 125.576 39.1276L124.35 39.1296L9.42998 39.1276Z" fill="black"/>
<path d="M32.7973 20.3003C32.8081 19.4657 33.0298 18.6473 33.4418 17.9213C33.8538 17.1954 34.4428 16.5854 35.1539 16.1483C34.7021 15.5031 34.1062 14.9722 33.4134 14.5976C32.7205 14.2231 31.9499 14.0152 31.1627 13.9906C29.4835 13.8143 27.8555 14.9954 26.9998 14.9954C26.1275 14.9954 24.81 14.0081 23.3913 14.0373C22.4736 14.0669 21.5793 14.3338 20.7954 14.8118C20.0115 15.2899 19.3649 15.9629 18.9184 16.7651C16.9844 20.1136 18.427 25.0346 20.2796 27.7412C21.2065 29.0666 22.2898 30.547 23.7072 30.4945C25.0943 30.437 25.6123 29.61 27.2866 29.61C28.9454 29.61 29.4314 30.4945 30.8776 30.4611C32.366 30.437 33.3038 29.1299 34.1981 27.792C34.8641 26.8476 35.3766 25.8039 35.7166 24.6995C34.8518 24.3338 34.1139 23.7216 33.5948 22.9393C33.0757 22.157 32.7983 21.2392 32.7973 20.3003Z" fill="white"/>
<path d="M30.0657 12.2103C30.8772 11.2361 31.277 9.98396 31.1802 8.71973C29.9404 8.84995 28.7951 9.44251 27.9726 10.3793C27.5705 10.837 27.2625 11.3694 27.0662 11.9462C26.87 12.523 26.7893 13.1328 26.8289 13.7407C27.449 13.7471 28.0626 13.6127 28.6232 13.3476C29.1839 13.0825 29.6771 12.6937 30.0657 12.2103Z" fill="white"/>
<path d="M50.3307 27.1392H45.5973L44.4606 30.4956H42.4557L46.9391 18.0776H49.0221L53.5055 30.4956H51.4664L50.3307 27.1392ZM46.0875 25.5904H49.8395L47.9899 20.1431H47.9381L46.0875 25.5904Z" fill="white"/>
<path d="M63.1881 25.9695C63.1881 28.7829 61.6823 30.5905 59.4098 30.5905C58.8341 30.6207 58.2616 30.4881 57.7578 30.2079C57.254 29.9278 56.8393 29.5114 56.5612 29.0065H56.5182V33.4909H54.6598V21.4421H56.4586V22.948H56.4928C56.7838 22.4455 57.2055 22.0313 57.7131 21.7495C58.2207 21.4676 58.7953 21.3287 59.3756 21.3474C61.6734 21.3474 63.1881 23.1638 63.1881 25.9695ZM61.278 25.9695C61.278 24.1365 60.3307 22.9314 58.8854 22.9314C57.4654 22.9314 56.5104 24.1618 56.5104 25.9695C56.5104 27.7937 57.4654 29.0154 58.8854 29.0154C60.3307 29.0154 61.278 27.8191 61.278 25.9695Z" fill="white"/>
<path d="M73.153 25.9694C73.153 28.7829 71.6471 30.5905 69.3746 30.5905C68.799 30.6206 68.2265 30.488 67.7227 30.2079C67.2189 29.9278 66.8042 29.5114 66.526 29.0065H66.483V33.4909H64.6246V21.4421H66.4234V22.948H66.4576C66.7486 22.4455 67.1703 22.0313 67.6779 21.7495C68.1856 21.4676 68.7601 21.3287 69.3404 21.3474C71.6383 21.3474 73.153 23.1638 73.153 25.9694ZM71.2428 25.9694C71.2428 24.1364 70.2955 22.9314 68.8502 22.9314C67.4303 22.9314 66.4752 24.1618 66.4752 25.9694C66.4752 27.7937 67.4303 29.0153 68.8502 29.0153C70.2955 29.0153 71.2428 27.8191 71.2428 25.9694H71.2428Z" fill="white"/>
<path d="M79.7389 27.0357C79.8766 28.2671 81.0729 29.0757 82.7076 29.0757C84.2741 29.0757 85.401 28.2671 85.401 27.1567C85.401 26.1929 84.7213 25.6157 83.1119 25.2202L81.5026 24.8325C79.2223 24.2817 78.1637 23.2153 78.1637 21.4849C78.1637 19.3423 80.0309 17.8706 82.6823 17.8706C85.3063 17.8706 87.1051 19.3423 87.1656 21.4849H85.2896C85.1774 20.2456 84.1529 19.4976 82.6559 19.4976C81.1588 19.4976 80.1344 20.2544 80.1344 21.356C80.1344 22.2339 80.7887 22.7505 82.3893 23.146L83.7574 23.4819C86.3053 24.0844 87.3639 25.1079 87.3639 26.9243C87.3639 29.2475 85.5133 30.7026 82.5699 30.7026C79.816 30.7026 77.9566 29.2817 77.8365 27.0356L79.7389 27.0357Z" fill="white"/>
<path d="M91.3746 19.2993V21.4419H93.0963V22.9136H91.3746V27.9048C91.3746 28.6802 91.7194 29.0415 92.4762 29.0415C92.6806 29.0379 92.8846 29.0236 93.0875 28.9985V30.4614C92.7472 30.525 92.4014 30.5538 92.0553 30.5473C90.2223 30.5473 89.5074 29.8589 89.5074 28.103V22.9136H88.191V21.4419H89.5074V19.2993H91.3746Z" fill="white"/>
<path d="M94.0934 25.9692C94.0934 23.1206 95.7711 21.3306 98.3874 21.3306C101.012 21.3306 102.682 23.1206 102.682 25.9692C102.682 28.8257 101.021 30.6079 98.3874 30.6079C95.7545 30.6079 94.0934 28.8257 94.0934 25.9692ZM100.789 25.9692C100.789 24.0151 99.8932 22.8618 98.3874 22.8618C96.8815 22.8618 95.987 24.0239 95.987 25.9692C95.987 27.9311 96.8815 29.0757 98.3874 29.0757C99.8932 29.0757 100.789 27.9311 100.789 25.9692H100.789Z" fill="white"/>
<path d="M104.214 21.442H105.987V22.983H106.03C106.15 22.5017 106.432 22.0764 106.828 21.7785C107.225 21.4806 107.712 21.3284 108.208 21.3473C108.422 21.3465 108.635 21.3698 108.844 21.4166V23.1549C108.574 23.0723 108.292 23.0343 108.009 23.0426C107.739 23.0316 107.47 23.0792 107.22 23.1821C106.971 23.285 106.746 23.4408 106.562 23.6386C106.378 23.8365 106.239 24.0719 106.155 24.3286C106.07 24.5852 106.042 24.8571 106.073 25.1256V30.4957H104.214L104.214 21.442Z" fill="white"/>
<path d="M117.413 27.8364C117.163 29.48 115.562 30.6079 113.514 30.6079C110.88 30.6079 109.246 28.8433 109.246 26.0122C109.246 23.1724 110.889 21.3306 113.436 21.3306C115.941 21.3306 117.516 23.0513 117.516 25.7964V26.4331H111.122V26.5454C111.092 26.8786 111.134 27.2143 111.244 27.5301C111.354 27.846 111.53 28.1347 111.761 28.3773C111.991 28.6198 112.27 28.8106 112.58 28.9369C112.89 29.0632 113.223 29.1222 113.557 29.1099C113.996 29.151 114.437 29.0493 114.814 28.8199C115.191 28.5904 115.483 28.2455 115.648 27.8364L117.413 27.8364ZM111.13 25.1343H115.657C115.674 24.8347 115.628 24.5349 115.523 24.2537C115.419 23.9725 115.257 23.7159 115.049 23.5001C114.84 23.2844 114.589 23.114 114.312 22.9998C114.034 22.8856 113.736 22.83 113.436 22.8364C113.134 22.8346 112.834 22.8928 112.553 23.0075C112.273 23.1222 112.019 23.2913 111.805 23.5049C111.59 23.7186 111.42 23.9726 111.305 24.2522C111.189 24.5319 111.13 24.8316 111.13 25.1343V25.1343Z" fill="white"/>
<path d="M45.8546 8.7304C46.2442 8.70244 46.6352 8.7613 46.9993 8.90274C47.3634 9.04417 47.6916 9.26465 47.9602 9.54828C48.2288 9.8319 48.4311 10.1716 48.5525 10.5429C48.6739 10.9141 48.7114 11.3077 48.6622 11.6952C48.6622 13.6015 47.632 14.6972 45.8546 14.6972H43.6993V8.7304H45.8546ZM44.6261 13.8534H45.7511C46.0295 13.87 46.3081 13.8244 46.5666 13.7198C46.8252 13.6152 47.0571 13.4542 47.2456 13.2487C47.4341 13.0431 47.5744 12.7981 47.6563 12.5315C47.7381 12.2648 47.7595 11.9833 47.7189 11.7074C47.7566 11.4326 47.733 11.1528 47.6499 10.8881C47.5668 10.6235 47.4262 10.3805 47.2381 10.1765C47.05 9.97261 46.8192 9.8128 46.5621 9.70856C46.305 9.60433 46.0281 9.55824 45.7511 9.57361H44.6261V13.8534Z" fill="white"/>
<path d="M49.7091 12.4438C49.6808 12.1479 49.7147 11.8493 49.8085 11.5672C49.9023 11.2852 50.0541 11.0258 50.254 10.8059C50.454 10.5859 50.6977 10.4101 50.9695 10.2898C51.2414 10.1696 51.5354 10.1074 51.8326 10.1074C52.1299 10.1074 52.4239 10.1696 52.6958 10.2898C52.9676 10.4101 53.2113 10.5859 53.4113 10.8059C53.6112 11.0258 53.763 11.2852 53.8568 11.5672C53.9506 11.8493 53.9845 12.1479 53.9562 12.4438C53.985 12.74 53.9516 13.039 53.858 13.3215C53.7644 13.6041 53.6127 13.8639 53.4127 14.0843C53.2127 14.3047 52.9688 14.4808 52.6967 14.6014C52.4246 14.7219 52.1303 14.7842 51.8326 14.7842C51.535 14.7842 51.2407 14.7219 50.9686 14.6014C50.6964 14.4808 50.4525 14.3047 50.2526 14.0843C50.0526 13.8639 49.9009 13.6041 49.8073 13.3215C49.7137 13.039 49.6803 12.74 49.7091 12.4438ZM53.0421 12.4438C53.0421 11.4677 52.6036 10.8969 51.8341 10.8969C51.0617 10.8969 50.6271 11.4677 50.6271 12.4438C50.6271 13.4277 51.0617 13.9941 51.8341 13.9941C52.6037 13.9941 53.0421 13.4238 53.0421 12.4438H53.0421Z" fill="white"/>
<path d="M59.6017 14.6973H58.6798L57.7491 11.3809H57.6788L56.7521 14.6973H55.839L54.5978 10.1943H55.4991L56.3058 13.6303H56.3722L57.298 10.1943H58.1505L59.0763 13.6303H59.1466L59.9493 10.1943H60.838L59.6017 14.6973Z" fill="white"/>
<path d="M61.882 10.1944H62.7374V10.9097H62.8038C62.9165 10.6528 63.1065 10.4374 63.3474 10.2936C63.5882 10.1498 63.868 10.0847 64.1476 10.1075C64.3667 10.091 64.5867 10.124 64.7913 10.2041C64.9959 10.2842 65.1798 10.4093 65.3295 10.5702C65.4792 10.731 65.5908 10.9235 65.656 11.1333C65.7212 11.3431 65.7383 11.5649 65.7062 11.7823V14.6973H64.8175V12.0054C64.8175 11.2818 64.5031 10.9219 63.8458 10.9219C63.6971 10.915 63.5486 10.9403 63.4105 10.9961C63.2725 11.052 63.1481 11.137 63.046 11.2454C62.9439 11.3538 62.8664 11.4829 62.8188 11.6241C62.7713 11.7652 62.7549 11.9149 62.7706 12.063V14.6973H61.882L61.882 10.1944Z" fill="white"/>
<path d="M67.1222 8.43652H68.0109V14.6973H67.1222V8.43652Z" fill="white"/>
<path d="M69.2462 12.4439C69.2179 12.1479 69.2518 11.8494 69.3456 11.5673C69.4395 11.2852 69.5913 11.0259 69.7913 10.8059C69.9912 10.5859 70.2349 10.4101 70.5068 10.2898C70.7787 10.1696 71.0727 10.1074 71.37 10.1074C71.6673 10.1074 71.9613 10.1696 72.2331 10.2898C72.505 10.4101 72.7487 10.5859 72.9487 10.8059C73.1487 11.0259 73.3004 11.2852 73.3943 11.5673C73.4882 11.8494 73.522 12.1479 73.4938 12.4439C73.5226 12.7401 73.4891 13.0391 73.3955 13.3216C73.3018 13.6042 73.1501 13.864 72.9501 14.0844C72.7501 14.3048 72.5062 14.4809 72.2341 14.6014C71.9619 14.722 71.6676 14.7842 71.37 14.7842C71.0723 14.7842 70.778 14.722 70.5059 14.6014C70.2337 14.4809 69.9898 14.3048 69.7898 14.0844C69.5898 13.864 69.4381 13.6042 69.3445 13.3216C69.2509 13.0391 69.2174 12.7401 69.2462 12.4439ZM72.5792 12.4439C72.5792 11.4678 72.1407 10.897 71.3712 10.897C70.5987 10.897 70.1642 11.4678 70.1642 12.4439C70.1642 13.4278 70.5988 13.9942 71.3712 13.9942C72.1407 13.9942 72.5792 13.4239 72.5792 12.4439H72.5792Z" fill="white"/>
<path d="M74.4293 13.4238C74.4293 12.6133 75.0328 12.146 76.1041 12.0796L77.3239 12.0093V11.6206C77.3239 11.145 77.0094 10.8765 76.402 10.8765C75.9059 10.8765 75.5621 11.0586 75.4635 11.377H74.6031C74.694 10.6035 75.4215 10.1074 76.443 10.1074C77.5719 10.1074 78.2086 10.6694 78.2086 11.6206V14.6973H77.3531V14.0645H77.2828C77.1401 14.2914 76.9397 14.4765 76.7021 14.6007C76.4645 14.7249 76.1981 14.7838 75.9303 14.7715C75.7413 14.7911 75.5502 14.7709 75.3694 14.7122C75.1887 14.6536 75.0222 14.5576 74.8808 14.4307C74.7394 14.3037 74.6262 14.1485 74.5484 13.9751C74.4706 13.8017 74.4301 13.6139 74.4293 13.4238ZM77.3239 13.0391V12.6626L76.2242 12.7329C75.6041 12.7744 75.3229 12.9853 75.3229 13.3823C75.3229 13.7876 75.6744 14.0234 76.1579 14.0234C76.2995 14.0378 76.4426 14.0235 76.5786 13.9814C76.7146 13.9393 76.8408 13.8703 76.9495 13.7784C77.0583 13.6866 77.1475 13.5738 77.2118 13.4468C77.2761 13.3198 77.3142 13.1811 77.3239 13.0391Z" fill="white"/>
<path d="M79.3766 12.4439C79.3766 11.021 80.108 10.1196 81.2457 10.1196C81.5271 10.1067 81.8064 10.1741 82.051 10.314C82.2955 10.4539 82.4951 10.6605 82.6266 10.9096H82.693V8.43652H83.5817V14.6973H82.7301V13.9858H82.6598C82.5182 14.2333 82.3116 14.4374 82.0623 14.5758C81.8131 14.7143 81.5307 14.782 81.2457 14.7715C80.1002 14.7715 79.3766 13.8701 79.3766 12.4439ZM80.2946 12.4439C80.2946 13.3989 80.7448 13.9737 81.4977 13.9737C82.2467 13.9737 82.7096 13.3907 82.7096 12.4478C82.7096 11.5093 82.2419 10.918 81.4977 10.918C80.7496 10.918 80.2946 11.4966 80.2946 12.4439H80.2946Z" fill="white"/>
<path d="M87.2584 12.4438C87.2301 12.1479 87.264 11.8493 87.3578 11.5672C87.4516 11.2852 87.6034 11.0258 87.8034 10.8059C88.0033 10.5859 88.247 10.4101 88.5188 10.2898C88.7907 10.1696 89.0847 10.1074 89.382 10.1074C89.6792 10.1074 89.9732 10.1696 90.2451 10.2898C90.5169 10.4101 90.7606 10.5859 90.9606 10.8059C91.1605 11.0258 91.3123 11.2852 91.4061 11.5672C91.5 11.8493 91.5338 12.1479 91.5055 12.4438C91.5343 12.74 91.5009 13.039 91.4073 13.3215C91.3137 13.6041 91.162 13.8639 90.962 14.0843C90.7621 14.3047 90.5182 14.4808 90.246 14.6014C89.9739 14.7219 89.6796 14.7842 89.382 14.7842C89.0843 14.7842 88.79 14.7219 88.5179 14.6014C88.2458 14.4808 88.0019 14.3047 87.8019 14.0843C87.6019 13.8639 87.4502 13.6041 87.3566 13.3215C87.263 13.039 87.2296 12.74 87.2584 12.4438ZM90.5914 12.4438C90.5914 11.4677 90.1529 10.8969 89.3834 10.8969C88.611 10.8969 88.1764 11.4677 88.1764 12.4438C88.1764 13.4277 88.611 13.9941 89.3834 13.9941C90.153 13.9941 90.5914 13.4238 90.5914 12.4438Z" fill="white"/>
<path d="M92.6979 10.1944H93.5533V10.9097H93.6198C93.7324 10.6528 93.9224 10.4374 94.1633 10.2936C94.4042 10.1498 94.6839 10.0847 94.9635 10.1075C95.1826 10.091 95.4026 10.124 95.6072 10.2041C95.8118 10.2842 95.9958 10.4093 96.1454 10.5702C96.2951 10.731 96.4067 10.9235 96.4719 11.1333C96.5371 11.3431 96.5543 11.5649 96.5221 11.7823V14.6973H95.6334V12.0054C95.6334 11.2818 95.319 10.9219 94.6618 10.9219C94.513 10.915 94.3645 10.9403 94.2264 10.9961C94.0884 11.052 93.964 11.137 93.8619 11.2454C93.7598 11.3538 93.6823 11.4829 93.6348 11.6241C93.5872 11.7652 93.5708 11.9149 93.5865 12.063V14.6973H92.6979V10.1944Z" fill="white"/>
<path d="M101.544 9.07324V10.2148H102.519V10.9634H101.544V13.2788C101.544 13.7505 101.738 13.957 102.18 13.957C102.294 13.9567 102.407 13.9498 102.519 13.9365V14.6768C102.36 14.7053 102.198 14.7205 102.036 14.7222C101.047 14.7222 100.654 14.3745 100.654 13.5063V10.9633H99.9391V10.2148H100.654V9.07324H101.544Z" fill="white"/>
<path d="M103.733 8.43652H104.614V10.918H104.684C104.802 10.6587 104.998 10.4421 105.243 10.2977C105.489 10.1534 105.773 10.0883 106.057 10.1113C106.275 10.0995 106.493 10.1359 106.695 10.2179C106.898 10.2999 107.079 10.4256 107.227 10.586C107.376 10.7463 107.486 10.9373 107.552 11.1455C107.618 11.3536 107.637 11.5737 107.608 11.79V14.6973H106.718V12.0093C106.718 11.29 106.383 10.9258 105.756 10.9258C105.603 10.9132 105.449 10.9342 105.305 10.9873C105.162 11.0404 105.031 11.1242 104.923 11.2329C104.815 11.3417 104.732 11.4727 104.68 11.6168C104.628 11.761 104.608 11.9147 104.622 12.0674V14.6973H103.733L103.733 8.43652Z" fill="white"/>
<path d="M112.79 13.4815C112.669 13.8931 112.407 14.249 112.051 14.4872C111.694 14.7253 111.265 14.8305 110.839 14.7842C110.542 14.7921 110.247 14.7353 109.975 14.6177C109.702 14.5002 109.458 14.3248 109.26 14.1036C109.063 13.8825 108.915 13.6209 108.828 13.3371C108.742 13.0533 108.718 12.754 108.758 12.46C108.719 12.1652 108.743 11.8652 108.83 11.5805C108.916 11.2959 109.063 11.0331 109.26 10.81C109.457 10.587 109.699 10.4088 109.971 10.2876C110.243 10.1664 110.537 10.105 110.835 10.1075C112.088 10.1075 112.843 10.9635 112.843 12.3775V12.6876H109.664V12.7374C109.65 12.9026 109.671 13.069 109.725 13.2257C109.779 13.3825 109.865 13.5262 109.978 13.6476C110.091 13.7691 110.228 13.8656 110.38 13.931C110.533 13.9964 110.697 14.0292 110.863 14.0274C111.075 14.0529 111.291 14.0146 111.482 13.9174C111.672 13.8202 111.83 13.6685 111.934 13.4815L112.79 13.4815ZM109.664 12.0303H111.938C111.949 11.8792 111.929 11.7274 111.878 11.5847C111.827 11.442 111.747 11.3115 111.642 11.2016C111.538 11.0918 111.412 11.005 111.272 10.9468C111.132 10.8886 110.981 10.8604 110.83 10.8638C110.676 10.8619 110.523 10.8908 110.381 10.9487C110.239 11.0067 110.109 11.0925 110.001 11.2012C109.892 11.3099 109.806 11.4393 109.748 11.5817C109.69 11.7241 109.662 11.8766 109.664 12.0303H109.664Z" fill="white"/>
</g>
<defs>
<clipPath id="clip0">
<rect width="135" height="40" fill="white" transform="translate(0 -0.000488281)"/>
</clipPath>
</defs>
</svg>
