<?xml version="1.0" standalone="no"?>
<!DOCTYPE svg PUBLIC "-//W3C//DTD SVG 20010904//EN"
 "http://www.w3.org/TR/2001/REC-SVG-20010904/DTD/svg10.dtd">
<svg version="1.0" xmlns="http://www.w3.org/2000/svg"
 width="280.000000pt" height="280.000000pt" viewBox="0 0 280.000000 280.000000"
 preserveAspectRatio="xMidYMid meet">
<metadata>
Created by potrace 1.11, written by Peter Selinger 2001-2013
</metadata>
<g transform="translate(0.000000,280.000000) scale(0.100000,-0.100000)"
fill="#000000" stroke="none">
<path d="M760 2784 c-334 -68 -586 -324 -646 -654 -10 -57 -13 -224 -14 -711
l0 -635 76 8 c352 38 623 270 715 613 21 78 21 99 23 738 l1 658 -50 -3 c-27
-1 -75 -7 -105 -14z"/>
<path d="M1658 2789 c-268 -44 -521 -248 -620 -500 -31 -76 -58 -200 -58 -261
l0 -43 518 1 c366 1 536 4 582 13 210 41 406 171 526 353 77 115 117 229 132
376 l8 72 -520 -1 c-287 -1 -542 -5 -568 -10z"/>
<path d="M2580 2044 c-88 -16 -191 -58 -274 -111 -179 -115 -298 -281 -352
-491 l-25 -97 -2 -648 -2 -648 55 2 c124 5 281 57 395 132 62 41 183 158 222
213 32 47 89 162 106 219 37 116 39 171 39 800 0 341 -1 626 -1 633 -1 16 -65
14 -161 -4z"/>
<path d="M772 808 c-294 -32 -568 -252 -666 -534 -26 -74 -54 -226 -48 -257 4
-17 29 -18 545 -15 477 4 549 6 597 21 30 10 64 19 75 22 80 19 250 129 321
208 75 83 88 103 135 193 53 106 82 211 83 304 l1 65 -490 0 c-269 0 -518 -3
-553 -7z"/>
</g>
</svg>
